<svg xmlns="http://www.w3.org/2000/svg" viewBox="0 0 64 64" role="img" aria-label="个人星球">
  <defs>
    <linearGradient id="planet" x1="14" y1="11" x2="51" y2="55" gradientUnits="userSpaceOnUse">
      <stop offset="0" stop-color="#ffb49e"/>
      <stop offset=".58" stop-color="#ee704c"/>
      <stop offset="1" stop-color="#db5b3f"/>
    </linearGradient>
    <linearGradient id="ring" x1="5" y1="45" x2="59" y2="19" gradientUnits="userSpaceOnUse">
      <stop offset="0" stop-color="#2f7561"/>
      <stop offset=".52" stop-color="#54e8ff"/>
      <stop offset="1" stop-color="#2f7561"/>
    </linearGradient>
    <radialGradient id="shine" cx="27%" cy="23%" r="58%">
      <stop offset="0" stop-color="#fff9ec" stop-opacity=".96"/>
      <stop offset=".34" stop-color="#fff2df" stop-opacity=".34"/>
      <stop offset="1" stop-color="#ffffff" stop-opacity="0"/>
    </radialGradient>
    <filter id="shadow" x="-30%" y="-30%" width="160%" height="160%">
      <feDropShadow dx="0" dy="5" stdDeviation="4" flood-color="#17231d" flood-opacity=".22"/>
    </filter>
  </defs>

  <rect width="64" height="64" rx="16" fill="#fff8eb"/>
  <circle cx="32" cy="32" r="21" fill="#e8f3c7" opacity=".48"/>

  <g filter="url(#shadow)">
    <ellipse cx="32" cy="33" rx="27" ry="8.4" fill="none" stroke="url(#ring)" stroke-width="3.1" transform="rotate(-18 32 33)"/>
    <circle cx="32" cy="32" r="17.5" fill="url(#planet)"/>
    <circle cx="32" cy="32" r="17.5" fill="url(#shine)"/>
    <path d="M21 30c7-4 16-3 24 3" fill="none" stroke="#b94c35" stroke-opacity=".28" stroke-width="2" stroke-linecap="round"/>
    <path d="M25 43c4-2 10-2 15 1" fill="none" stroke="#b94c35" stroke-opacity=".24" stroke-width="2" stroke-linecap="round"/>
  </g>

  <path d="M49 14l1.2 4.1 4.1 1.2-4.1 1.2L49 25.6l-1.2-4.1-4.1-1.2 4.1-1.2L49 14z" fill="#2f7561"/>
</svg>
